<mxfile host="65bd71144e">
    <diagram id="C5RBs43oDa-KdzZeNtuy" name="Page-1">
        <mxGraphModel dx="3249" dy="2225" grid="1" gridSize="10" guides="1" tooltips="1" connect="1" arrows="1" fold="1" page="1" pageScale="1" pageWidth="827" pageHeight="1169" math="0" shadow="0">
            <root>
                <mxCell id="WIyWlLk6GJQsqaUBKTNV-0"/>
                <mxCell id="WIyWlLk6GJQsqaUBKTNV-1" parent="WIyWlLk6GJQsqaUBKTNV-0"/>
                <mxCell id="273" value="Pessoa" style="swimlane;fontStyle=2;align=center;verticalAlign=top;childLayout=stackLayout;horizontal=1;startSize=26;horizontalStack=0;resizeParent=1;resizeLast=0;collapsible=1;marginBottom=0;rounded=0;shadow=0;strokeWidth=1;" vertex="1" parent="WIyWlLk6GJQsqaUBKTNV-1">
                    <mxGeometry x="170" y="10" width="160" height="230" as="geometry">
                        <mxRectangle x="230" y="140" width="160" height="26" as="alternateBounds"/>
                    </mxGeometry>
                </mxCell>
                <mxCell id="274" value="-nome:string" style="text;align=left;verticalAlign=top;spacingLeft=4;spacingRight=4;overflow=hidden;rotatable=0;points=[[0,0.5],[1,0.5]];portConstraint=eastwest;" vertex="1" parent="273">
                    <mxGeometry y="26" width="160" height="26" as="geometry"/>
                </mxCell>
                <mxCell id="275" value="-telefone:string" style="text;align=left;verticalAlign=top;spacingLeft=4;spacingRight=4;overflow=hidden;rotatable=0;points=[[0,0.5],[1,0.5]];portConstraint=eastwest;rounded=0;shadow=0;html=0;" vertex="1" parent="273">
                    <mxGeometry y="52" width="160" height="26" as="geometry"/>
                </mxCell>
                <mxCell id="276" value="-endereco:string" style="text;align=left;verticalAlign=top;spacingLeft=4;spacingRight=4;overflow=hidden;rotatable=0;points=[[0,0.5],[1,0.5]];portConstraint=eastwest;rounded=0;shadow=0;html=0;" vertex="1" parent="273">
                    <mxGeometry y="78" width="160" height="26" as="geometry"/>
                </mxCell>
                <mxCell id="277" value="-cpf:int" style="text;html=1;strokeColor=none;fillColor=none;align=left;verticalAlign=middle;whiteSpace=wrap;rounded=0;" vertex="1" parent="273">
                    <mxGeometry y="104" width="160" height="30" as="geometry"/>
                </mxCell>
                <mxCell id="278" value="-identidade:string" style="text;html=1;strokeColor=none;fillColor=none;align=left;verticalAlign=middle;whiteSpace=wrap;rounded=0;" vertex="1" parent="273">
                    <mxGeometry y="134" width="160" height="30" as="geometry"/>
                </mxCell>
                <mxCell id="279" value="-sexo:char" style="text;html=1;strokeColor=none;fillColor=none;align=left;verticalAlign=middle;whiteSpace=wrap;rounded=0;" vertex="1" parent="273">
                    <mxGeometry y="164" width="160" height="30" as="geometry"/>
                </mxCell>
                <mxCell id="280" value="" style="line;html=1;strokeWidth=1;align=left;verticalAlign=middle;spacingTop=-1;spacingLeft=3;spacingRight=3;rotatable=0;labelPosition=right;points=[];portConstraint=eastwest;" vertex="1" parent="273">
                    <mxGeometry y="194" width="160" height="4" as="geometry"/>
                </mxCell>
                <mxCell id="281" value="Medico" style="swimlane;fontStyle=0;align=center;verticalAlign=top;childLayout=stackLayout;horizontal=1;startSize=26;horizontalStack=0;resizeParent=1;resizeLast=0;collapsible=1;marginBottom=0;rounded=0;shadow=0;strokeWidth=1;" vertex="1" parent="WIyWlLk6GJQsqaUBKTNV-1">
                    <mxGeometry x="-140" y="328.5" width="210" height="256" as="geometry">
                        <mxRectangle x="130" y="380" width="160" height="26" as="alternateBounds"/>
                    </mxGeometry>
                </mxCell>
                <mxCell id="282" value="-CRM:int" style="text;align=left;verticalAlign=top;spacingLeft=4;spacingRight=4;overflow=hidden;rotatable=0;points=[[0,0.5],[1,0.5]];portConstraint=eastwest;" vertex="1" parent="281">
                    <mxGeometry y="26" width="210" height="26" as="geometry"/>
                </mxCell>
                <mxCell id="283" value="-especialidade:string" style="text;align=left;verticalAlign=top;spacingLeft=4;spacingRight=4;overflow=hidden;rotatable=0;points=[[0,0.5],[1,0.5]];portConstraint=eastwest;rounded=0;shadow=0;html=0;" vertex="1" parent="281">
                    <mxGeometry y="52" width="210" height="26" as="geometry"/>
                </mxCell>
                <mxCell id="284" value="-anterior:Medico" style="text;html=1;strokeColor=none;fillColor=none;align=left;verticalAlign=middle;whiteSpace=wrap;rounded=0;" vertex="1" parent="281">
                    <mxGeometry y="78" width="210" height="30" as="geometry"/>
                </mxCell>
                <mxCell id="285" value="-proximo:Medico" style="text;html=1;strokeColor=none;fillColor=none;align=left;verticalAlign=middle;whiteSpace=wrap;rounded=0;" vertex="1" parent="281">
                    <mxGeometry y="108" width="210" height="30" as="geometry"/>
                </mxCell>
                <mxCell id="286" value="" style="line;html=1;strokeWidth=1;align=left;verticalAlign=middle;spacingTop=-1;spacingLeft=3;spacingRight=3;rotatable=0;labelPosition=right;points=[];portConstraint=eastwest;" vertex="1" parent="281">
                    <mxGeometry y="138" width="210" height="2" as="geometry"/>
                </mxCell>
                <mxCell id="287" value="+setproximo(Medico *ponteiro):void" style="text;align=left;verticalAlign=top;spacingLeft=4;spacingRight=4;overflow=hidden;rotatable=0;points=[[0,0.5],[1,0.5]];portConstraint=eastwest;" vertex="1" parent="281">
                    <mxGeometry y="140" width="210" height="26" as="geometry"/>
                </mxCell>
                <mxCell id="288" value="+setanterior(Medico *ponteiro):void" style="text;html=1;strokeColor=none;fillColor=none;align=left;verticalAlign=middle;whiteSpace=wrap;rounded=0;" vertex="1" parent="281">
                    <mxGeometry y="166" width="210" height="30" as="geometry"/>
                </mxCell>
                <mxCell id="289" value="+obterantrerior():Medico" style="text;html=1;strokeColor=none;fillColor=none;align=left;verticalAlign=middle;whiteSpace=wrap;rounded=0;" vertex="1" parent="281">
                    <mxGeometry y="196" width="210" height="30" as="geometry"/>
                </mxCell>
                <mxCell id="290" value="+obterproximo():Medico" style="text;html=1;align=left;verticalAlign=middle;resizable=0;points=[];autosize=1;strokeColor=none;fillColor=none;" vertex="1" parent="281">
                    <mxGeometry y="226" width="210" height="30" as="geometry"/>
                </mxCell>
                <mxCell id="291" value="" style="endArrow=block;endSize=10;endFill=0;shadow=0;strokeWidth=1;rounded=0;edgeStyle=elbowEdgeStyle;elbow=vertical;" edge="1" parent="WIyWlLk6GJQsqaUBKTNV-1" source="281" target="273">
                    <mxGeometry width="160" relative="1" as="geometry">
                        <mxPoint x="200" y="203" as="sourcePoint"/>
                        <mxPoint x="200" y="203" as="targetPoint"/>
                    </mxGeometry>
                </mxCell>
                <mxCell id="292" value="Paciente" style="swimlane;fontStyle=0;align=center;verticalAlign=top;childLayout=stackLayout;horizontal=1;startSize=26;horizontalStack=0;resizeParent=1;resizeLast=0;collapsible=1;marginBottom=0;rounded=0;shadow=0;strokeWidth=1;" vertex="1" parent="WIyWlLk6GJQsqaUBKTNV-1">
                    <mxGeometry x="570" y="-210" width="240" height="290" as="geometry">
                        <mxRectangle x="340" y="380" width="170" height="26" as="alternateBounds"/>
                    </mxGeometry>
                </mxCell>
                <mxCell id="293" value="-relato:string" style="text;align=left;verticalAlign=top;spacingLeft=4;spacingRight=4;overflow=hidden;rotatable=0;points=[[0,0.5],[1,0.5]];portConstraint=eastwest;" vertex="1" parent="292">
                    <mxGeometry y="26" width="240" height="26" as="geometry"/>
                </mxCell>
                <mxCell id="294" value="-medicacao:string" style="text;html=1;strokeColor=none;fillColor=none;align=left;verticalAlign=middle;whiteSpace=wrap;rounded=0;" vertex="1" parent="292">
                    <mxGeometry y="52" width="240" height="30" as="geometry"/>
                </mxCell>
                <mxCell id="295" value="-dataultimaconsulta:string" style="text;html=1;strokeColor=none;fillColor=none;align=left;verticalAlign=middle;whiteSpace=wrap;rounded=0;" vertex="1" parent="292">
                    <mxGeometry y="82" width="240" height="30" as="geometry"/>
                </mxCell>
                <mxCell id="296" value="-anterior:Paciente" style="text;html=1;strokeColor=none;fillColor=none;align=left;verticalAlign=middle;whiteSpace=wrap;rounded=0;" vertex="1" parent="292">
                    <mxGeometry y="112" width="240" height="30" as="geometry"/>
                </mxCell>
                <mxCell id="297" value="-proximo:Paciente" style="text;html=1;strokeColor=none;fillColor=none;align=left;verticalAlign=middle;whiteSpace=wrap;rounded=0;" vertex="1" parent="292">
                    <mxGeometry y="142" width="240" height="30" as="geometry"/>
                </mxCell>
                <mxCell id="298" value="" style="line;html=1;strokeWidth=1;align=left;verticalAlign=middle;spacingTop=-1;spacingLeft=3;spacingRight=3;rotatable=0;labelPosition=right;points=[];portConstraint=eastwest;" vertex="1" parent="292">
                    <mxGeometry y="172" width="240" height="6" as="geometry"/>
                </mxCell>
                <mxCell id="299" value="+setproximo(Paciente *ponteiro):void" style="text;html=1;strokeColor=none;fillColor=none;align=left;verticalAlign=middle;whiteSpace=wrap;rounded=0;" vertex="1" parent="292">
                    <mxGeometry y="178" width="240" height="32" as="geometry"/>
                </mxCell>
                <mxCell id="300" value="+setanterior(Paciente *ponteiro):void" style="text;html=1;strokeColor=none;fillColor=none;align=left;verticalAlign=middle;whiteSpace=wrap;rounded=0;" vertex="1" parent="292">
                    <mxGeometry y="210" width="240" height="30" as="geometry"/>
                </mxCell>
                <mxCell id="301" value="+obteranterior():Paciente" style="text;html=1;strokeColor=none;fillColor=none;align=left;verticalAlign=middle;whiteSpace=wrap;rounded=0;" vertex="1" parent="292">
                    <mxGeometry y="240" width="240" height="30" as="geometry"/>
                </mxCell>
                <mxCell id="302" value="+obterproximo():Paciente" style="text;html=1;align=left;verticalAlign=middle;resizable=0;points=[];autosize=1;strokeColor=none;fillColor=none;" vertex="1" parent="292">
                    <mxGeometry y="270" width="240" height="20" as="geometry"/>
                </mxCell>
                <mxCell id="303" value="" style="endArrow=block;endSize=10;endFill=0;shadow=0;strokeWidth=1;rounded=0;edgeStyle=elbowEdgeStyle;elbow=vertical;" edge="1" parent="WIyWlLk6GJQsqaUBKTNV-1" source="292" target="273">
                    <mxGeometry width="160" relative="1" as="geometry">
                        <mxPoint x="210" y="373" as="sourcePoint"/>
                        <mxPoint x="310" y="271" as="targetPoint"/>
                    </mxGeometry>
                </mxCell>
                <mxCell id="304" value="Consultorio" style="swimlane;align=center;" vertex="1" parent="WIyWlLk6GJQsqaUBKTNV-1">
                    <mxGeometry x="150" y="700" width="730" height="490" as="geometry"/>
                </mxCell>
                <mxCell id="305" value="" style="line;strokeWidth=2;html=1;" vertex="1" parent="304">
                    <mxGeometry y="100" width="730" height="150" as="geometry"/>
                </mxCell>
                <mxCell id="306" value="-listamedico:list" style="text;html=1;strokeColor=none;fillColor=none;align=left;verticalAlign=middle;whiteSpace=wrap;rounded=0;" vertex="1" parent="304">
                    <mxGeometry y="58" width="200" height="30" as="geometry"/>
                </mxCell>
                <mxCell id="307" value="-listapaciente:list" style="text;html=1;strokeColor=none;fillColor=none;align=left;verticalAlign=middle;whiteSpace=wrap;rounded=0;" vertex="1" parent="304">
                    <mxGeometry y="28" width="200" height="30" as="geometry"/>
                </mxCell>
                <mxCell id="308" value="-listaconsulta:list" style="text;html=1;strokeColor=none;fillColor=none;align=left;verticalAlign=middle;whiteSpace=wrap;rounded=0;" vertex="1" parent="304">
                    <mxGeometry y="85" width="200" height="30" as="geometry"/>
                </mxCell>
                <mxCell id="309" value="-endereco:string" style="text;html=1;strokeColor=none;fillColor=none;align=left;verticalAlign=middle;whiteSpace=wrap;rounded=0;" vertex="1" parent="304">
                    <mxGeometry y="110" width="200" height="30" as="geometry"/>
                </mxCell>
                <mxCell id="310" value="-telefone:int" style="text;html=1;strokeColor=none;fillColor=none;align=left;verticalAlign=middle;whiteSpace=wrap;rounded=0;" vertex="1" parent="304">
                    <mxGeometry y="140" width="190" height="30" as="geometry"/>
                </mxCell>
                <mxCell id="311" value="+cadastrarpaciente(string relato,string medicacao,int cpf,string nome,string endereco,string telefone, char sexo, string identidade):void" style="text;html=1;strokeColor=none;fillColor=none;align=left;verticalAlign=middle;whiteSpace=wrap;rounded=0;" vertex="1" parent="304">
                    <mxGeometry y="180" width="730" height="30" as="geometry"/>
                </mxCell>
                <mxCell id="312" value="+cadastrarmedico(int crm,string especialidade,string nomedomedico, int cpfdomedico,string enderecodomedico, string identidadedomedico,char sexo,string telefonedomedico):void" style="text;html=1;strokeColor=none;fillColor=none;align=left;verticalAlign=middle;whiteSpace=wrap;rounded=0;" vertex="1" parent="304">
                    <mxGeometry y="220" width="730" height="30" as="geometry"/>
                </mxCell>
                <mxCell id="313" value="+cadastarconsulta(string hora, int cpfpaciente, int CRMmedico, int dia, int mes, int ano):void" style="text;html=1;strokeColor=none;fillColor=none;align=left;verticalAlign=middle;whiteSpace=wrap;rounded=0;" vertex="1" parent="304">
                    <mxGeometry y="250" width="730" height="30" as="geometry"/>
                </mxCell>
                <mxCell id="314" value="+imprimirlistadepacientes(int cpf):void" style="text;html=1;strokeColor=none;fillColor=none;align=left;verticalAlign=middle;whiteSpace=wrap;rounded=0;" vertex="1" parent="304">
                    <mxGeometry y="280" width="730" height="30" as="geometry"/>
                </mxCell>
                <mxCell id="315" value="+imprimirlistademedicos(int crm):void" style="text;html=1;strokeColor=none;fillColor=none;align=left;verticalAlign=middle;whiteSpace=wrap;rounded=0;" vertex="1" parent="304">
                    <mxGeometry y="310" width="730" height="30" as="geometry"/>
                </mxCell>
                <mxCell id="316" value="+imprimirconsultasdomedico():void" style="text;html=1;strokeColor=none;fillColor=none;align=left;verticalAlign=middle;whiteSpace=wrap;rounded=0;" vertex="1" parent="304">
                    <mxGeometry y="460" width="200" height="30" as="geometry"/>
                </mxCell>
                <mxCell id="317" value="+imprimirconsultas():void" style="text;html=1;strokeColor=none;fillColor=none;align=left;verticalAlign=middle;whiteSpace=wrap;rounded=0;" vertex="1" parent="WIyWlLk6GJQsqaUBKTNV-1">
                    <mxGeometry x="150" y="1040" width="200" height="30" as="geometry"/>
                </mxCell>
                <mxCell id="318" value="+removerconsulta():void" style="text;html=1;strokeColor=none;fillColor=none;align=left;verticalAlign=middle;whiteSpace=wrap;rounded=0;" vertex="1" parent="WIyWlLk6GJQsqaUBKTNV-1">
                    <mxGeometry x="150" y="1070" width="200" height="30" as="geometry"/>
                </mxCell>
                <mxCell id="319" value="+removerpaciente(string nomedopaciente):void" style="text;html=1;strokeColor=none;fillColor=none;align=left;verticalAlign=middle;whiteSpace=wrap;rounded=0;" vertex="1" parent="WIyWlLk6GJQsqaUBKTNV-1">
                    <mxGeometry x="150" y="1100" width="730" height="30" as="geometry"/>
                </mxCell>
                <mxCell id="320" value="+removermedico(int crmremover):void" style="text;html=1;strokeColor=none;fillColor=none;align=left;verticalAlign=middle;whiteSpace=wrap;rounded=0;" vertex="1" parent="WIyWlLk6GJQsqaUBKTNV-1">
                    <mxGeometry x="150" y="1130" width="730" height="30" as="geometry"/>
                </mxCell>
                <mxCell id="321" value="Consulta" style="swimlane;fontStyle=0;childLayout=stackLayout;horizontal=1;startSize=26;fillColor=none;horizontalStack=0;resizeParent=1;resizeParentMax=0;resizeLast=0;collapsible=1;marginBottom=0;" vertex="1" parent="WIyWlLk6GJQsqaUBKTNV-1">
                    <mxGeometry x="1140" y="896" width="210" height="204" as="geometry"/>
                </mxCell>
                <mxCell id="322" value="-data:data" style="text;strokeColor=none;fillColor=none;align=left;verticalAlign=top;spacingLeft=4;spacingRight=4;overflow=hidden;rotatable=0;points=[[0,0.5],[1,0.5]];portConstraint=eastwest;" vertex="1" parent="321">
                    <mxGeometry y="26" width="210" height="26" as="geometry"/>
                </mxCell>
                <mxCell id="323" value="-cpfpaciente:int" style="text;strokeColor=none;fillColor=none;align=left;verticalAlign=top;spacingLeft=4;spacingRight=4;overflow=hidden;rotatable=0;points=[[0,0.5],[1,0.5]];portConstraint=eastwest;" vertex="1" parent="321">
                    <mxGeometry y="52" width="210" height="26" as="geometry"/>
                </mxCell>
                <mxCell id="324" value="-hora:string" style="text;html=1;strokeColor=none;fillColor=none;align=left;verticalAlign=middle;whiteSpace=wrap;rounded=0;" vertex="1" parent="321">
                    <mxGeometry y="78" width="210" height="30" as="geometry"/>
                </mxCell>
                <mxCell id="325" value="crmmedico:int" style="text;strokeColor=none;fillColor=none;align=left;verticalAlign=top;spacingLeft=4;spacingRight=4;overflow=hidden;rotatable=0;points=[[0,0.5],[1,0.5]];portConstraint=eastwest;" vertex="1" parent="321">
                    <mxGeometry y="108" width="210" height="26" as="geometry"/>
                </mxCell>
                <mxCell id="326" value="" style="line;strokeWidth=2;html=1;" vertex="1" parent="321">
                    <mxGeometry y="134" width="210" height="10" as="geometry"/>
                </mxCell>
                <mxCell id="327" value="+obterproximo():Consulta" style="text;html=1;strokeColor=none;fillColor=none;align=left;verticalAlign=middle;whiteSpace=wrap;rounded=0;" vertex="1" parent="321">
                    <mxGeometry y="144" width="210" height="30" as="geometry"/>
                </mxCell>
                <mxCell id="328" value="+setproximo(Consulta *ponteiro):void" style="text;html=1;strokeColor=none;fillColor=none;align=left;verticalAlign=middle;whiteSpace=wrap;rounded=0;" vertex="1" parent="321">
                    <mxGeometry y="174" width="210" height="30" as="geometry"/>
                </mxCell>
                <mxCell id="329" value="Data" style="swimlane;fontStyle=0;childLayout=stackLayout;horizontal=1;startSize=26;fillColor=none;horizontalStack=0;resizeParent=1;resizeParentMax=0;resizeLast=0;collapsible=1;marginBottom=0;" vertex="1" parent="WIyWlLk6GJQsqaUBKTNV-1">
                    <mxGeometry x="1140" y="1230" width="140" height="104" as="geometry"/>
                </mxCell>
                <mxCell id="330" value="-dia:int" style="text;strokeColor=none;fillColor=none;align=left;verticalAlign=top;spacingLeft=4;spacingRight=4;overflow=hidden;rotatable=0;points=[[0,0.5],[1,0.5]];portConstraint=eastwest;" vertex="1" parent="329">
                    <mxGeometry y="26" width="140" height="26" as="geometry"/>
                </mxCell>
                <mxCell id="331" value="-mes:int" style="text;strokeColor=none;fillColor=none;align=left;verticalAlign=top;spacingLeft=4;spacingRight=4;overflow=hidden;rotatable=0;points=[[0,0.5],[1,0.5]];portConstraint=eastwest;" vertex="1" parent="329">
                    <mxGeometry y="52" width="140" height="26" as="geometry"/>
                </mxCell>
                <mxCell id="332" value="-ano:int" style="text;strokeColor=none;fillColor=none;align=left;verticalAlign=top;spacingLeft=4;spacingRight=4;overflow=hidden;rotatable=0;points=[[0,0.5],[1,0.5]];portConstraint=eastwest;" vertex="1" parent="329">
                    <mxGeometry y="78" width="140" height="26" as="geometry"/>
                </mxCell>
                <mxCell id="333" value="0..*" style="text;html=1;strokeColor=none;fillColor=none;align=center;verticalAlign=middle;whiteSpace=wrap;rounded=0;" vertex="1" parent="WIyWlLk6GJQsqaUBKTNV-1">
                    <mxGeometry x="1241" y="876" width="60" height="30" as="geometry"/>
                </mxCell>
                <mxCell id="334" value="1" style="text;html=1;strokeColor=none;fillColor=none;align=center;verticalAlign=middle;whiteSpace=wrap;rounded=0;" vertex="1" parent="WIyWlLk6GJQsqaUBKTNV-1">
                    <mxGeometry x="980" y="641" width="40" height="18" as="geometry"/>
                </mxCell>
                <mxCell id="335" value="0..*" style="text;html=1;strokeColor=none;fillColor=none;align=center;verticalAlign=middle;whiteSpace=wrap;rounded=0;" vertex="1" parent="WIyWlLk6GJQsqaUBKTNV-1">
                    <mxGeometry x="645" y="80" width="60" height="30" as="geometry"/>
                </mxCell>
                <mxCell id="336" value="1" style="text;html=1;strokeColor=none;fillColor=none;align=center;verticalAlign=middle;whiteSpace=wrap;rounded=0;" vertex="1" parent="WIyWlLk6GJQsqaUBKTNV-1">
                    <mxGeometry x="1240" y="722" width="20" height="18" as="geometry"/>
                </mxCell>
                <mxCell id="337" value="1" style="text;html=1;strokeColor=none;fillColor=none;align=center;verticalAlign=middle;whiteSpace=wrap;rounded=0;" vertex="1" parent="WIyWlLk6GJQsqaUBKTNV-1">
                    <mxGeometry x="1211" y="1100" width="30" height="20" as="geometry"/>
                </mxCell>
                <mxCell id="338" value="1" style="text;html=1;strokeColor=none;fillColor=none;align=center;verticalAlign=middle;whiteSpace=wrap;rounded=0;" vertex="1" parent="WIyWlLk6GJQsqaUBKTNV-1">
                    <mxGeometry x="1211" y="1210" width="30" height="20" as="geometry"/>
                </mxCell>
                <mxCell id="339" value="1" style="text;html=1;strokeColor=none;fillColor=none;align=center;verticalAlign=middle;whiteSpace=wrap;rounded=0;" vertex="1" parent="WIyWlLk6GJQsqaUBKTNV-1">
                    <mxGeometry x="120" y="798" width="20" height="20" as="geometry"/>
                </mxCell>
                <mxCell id="340" value="0..*" style="text;html=1;strokeColor=none;fillColor=none;align=center;verticalAlign=middle;whiteSpace=wrap;rounded=0;" vertex="1" parent="WIyWlLk6GJQsqaUBKTNV-1">
                    <mxGeometry x="-80" y="585" width="60" height="30" as="geometry"/>
                </mxCell>
                <mxCell id="341" value="&lt;p style=&quot;margin:0px;margin-top:4px;text-align:center;&quot;&gt;&lt;b&gt;listamedico&lt;/b&gt;&lt;/p&gt;&lt;hr size=&quot;1&quot;&gt;&lt;p style=&quot;margin:0px;margin-left:4px;&quot;&gt;- cabeca:Medico&lt;br&gt;- cauda:Medico&lt;/p&gt;&lt;hr size=&quot;1&quot;&gt;&lt;p style=&quot;margin:0px;margin-left:4px;&quot;&gt;+ inserirnalista(int cpfpaciente):void&lt;br&gt;+ vazia():bool&lt;/p&gt;&lt;p style=&quot;margin:0px;margin-left:4px;&quot;&gt;+remover(int remover):void&lt;/p&gt;&lt;p style=&quot;margin:0px;margin-left:4px;&quot;&gt;+mostrartodoositens():void&lt;/p&gt;&lt;p style=&quot;margin:0px;margin-left:4px;&quot;&gt;+pesquisarcrm(int CRM):void&lt;/p&gt;&lt;p style=&quot;margin:0px;margin-left:4px;&quot;&gt;+pesquisamedico(int crm):void&lt;/p&gt;" style="verticalAlign=top;align=left;overflow=fill;fontSize=12;fontFamily=Helvetica;html=1;" vertex="1" parent="WIyWlLk6GJQsqaUBKTNV-1">
                    <mxGeometry x="-280" y="780" width="200" height="170" as="geometry"/>
                </mxCell>
                <mxCell id="342" value="" style="endArrow=open;html=1;endSize=12;startArrow=diamondThin;startSize=14;startFill=1;edgeStyle=orthogonalEdgeStyle;align=left;verticalAlign=bottom;rounded=0;exitX=0.25;exitY=0;exitDx=0;exitDy=0;entryX=0.5;entryY=0;entryDx=0;entryDy=0;" edge="1" parent="WIyWlLk6GJQsqaUBKTNV-1" source="340" target="341">
                    <mxGeometry x="-1" y="3" relative="1" as="geometry">
                        <mxPoint x="-80" y="700" as="sourcePoint"/>
                        <mxPoint x="-260" y="620" as="targetPoint"/>
                        <Array as="points">
                            <mxPoint x="-65" y="670"/>
                            <mxPoint x="-180" y="670"/>
                        </Array>
                    </mxGeometry>
                </mxCell>
                <mxCell id="343" value="1" style="text;html=1;strokeColor=none;fillColor=none;align=center;verticalAlign=middle;whiteSpace=wrap;rounded=0;" vertex="1" parent="WIyWlLk6GJQsqaUBKTNV-1">
                    <mxGeometry x="-80" y="820" width="40" height="20" as="geometry"/>
                </mxCell>
                <mxCell id="344" value="1" style="text;html=1;strokeColor=none;fillColor=none;align=center;verticalAlign=middle;whiteSpace=wrap;rounded=0;" vertex="1" parent="WIyWlLk6GJQsqaUBKTNV-1">
                    <mxGeometry x="-170" y="770" width="30" height="10" as="geometry"/>
                </mxCell>
                <mxCell id="345" value="" style="endArrow=none;html=1;edgeStyle=orthogonalEdgeStyle;rounded=0;exitX=1;exitY=0.25;exitDx=0;exitDy=0;entryX=0;entryY=0.75;entryDx=0;entryDy=0;" edge="1" parent="WIyWlLk6GJQsqaUBKTNV-1" source="341" target="306">
                    <mxGeometry relative="1" as="geometry">
                        <mxPoint x="-60" y="768.89" as="sourcePoint"/>
                        <mxPoint x="100" y="768.89" as="targetPoint"/>
                        <Array as="points">
                            <mxPoint x="150" y="815"/>
                        </Array>
                    </mxGeometry>
                </mxCell>
                <mxCell id="346" value="" style="endArrow=none;html=1;edgeStyle=orthogonalEdgeStyle;rounded=0;exitX=0.5;exitY=0;exitDx=0;exitDy=0;entryX=0.5;entryY=1;entryDx=0;entryDy=0;" edge="1" parent="WIyWlLk6GJQsqaUBKTNV-1" source="304" target="354">
                    <mxGeometry relative="1" as="geometry">
                        <mxPoint x="414" y="710" as="sourcePoint"/>
                        <mxPoint x="574" y="710" as="targetPoint"/>
                        <Array as="points">
                            <mxPoint x="515" y="580"/>
                            <mxPoint x="645" y="580"/>
                        </Array>
                    </mxGeometry>
                </mxCell>
                <mxCell id="347" value="child" style="edgeLabel;resizable=0;html=1;align=right;verticalAlign=bottom;" connectable="0" vertex="1" parent="346">
                    <mxGeometry x="1" relative="1" as="geometry"/>
                </mxCell>
                <mxCell id="348" value="" style="endArrow=none;html=1;edgeStyle=orthogonalEdgeStyle;rounded=0;entryX=-0.004;entryY=0.577;entryDx=0;entryDy=0;entryPerimeter=0;" edge="1" parent="WIyWlLk6GJQsqaUBKTNV-1" target="350">
                    <mxGeometry relative="1" as="geometry">
                        <mxPoint x="880" y="820" as="sourcePoint"/>
                        <mxPoint x="533.1800000000001" y="654.5600000000002" as="targetPoint"/>
                        <Array as="points">
                            <mxPoint x="950" y="820"/>
                            <mxPoint x="950" y="681"/>
                            <mxPoint x="1018" y="681"/>
                        </Array>
                    </mxGeometry>
                </mxCell>
                <mxCell id="349" value="" style="endArrow=open;html=1;endSize=12;startArrow=diamondThin;startSize=14;startFill=1;edgeStyle=orthogonalEdgeStyle;align=left;verticalAlign=bottom;rounded=0;entryX=0.5;entryY=0;entryDx=0;entryDy=0;exitX=0.5;exitY=1;exitDx=0;exitDy=0;" edge="1" parent="WIyWlLk6GJQsqaUBKTNV-1" source="328" target="329">
                    <mxGeometry x="-1" y="128" relative="1" as="geometry">
                        <mxPoint x="1290" y="1210" as="sourcePoint"/>
                        <mxPoint x="1080" y="1260" as="targetPoint"/>
                        <Array as="points"/>
                        <mxPoint x="-80" y="28" as="offset"/>
                    </mxGeometry>
                </mxCell>
                <mxCell id="350" value="&lt;p style=&quot;margin:0px;margin-top:4px;text-align:center;&quot;&gt;&lt;b&gt;listaconsulta&lt;/b&gt;&lt;/p&gt;&lt;hr size=&quot;1&quot;&gt;&lt;p style=&quot;margin:0px;margin-left:4px;&quot;&gt;- cabeca:Consulta&lt;br&gt;- cauda:Consulta&lt;/p&gt;&lt;hr size=&quot;1&quot;&gt;&lt;p style=&quot;margin:0px;margin-left:4px;&quot;&gt;+ inserirnalista(int cpfpaciente,int CRMmedico,string hora,int dia, int mes, int ano):void&lt;br&gt;+ vazia():bool&lt;/p&gt;&lt;p style=&quot;margin:0px;margin-left:4px;&quot;&gt;+remover(int cpfpaciente):void&lt;/p&gt;&lt;p style=&quot;margin:0px;margin-left:4px;&quot;&gt;+mostrartodoositens():void&lt;/p&gt;" style="verticalAlign=top;align=left;overflow=fill;fontSize=12;fontFamily=Helvetica;html=1;" vertex="1" parent="WIyWlLk6GJQsqaUBKTNV-1">
                    <mxGeometry x="1020" y="580" width="470" height="140" as="geometry"/>
                </mxCell>
                <mxCell id="351" value="" style="endArrow=open;html=1;endSize=12;startArrow=diamondThin;startSize=14;startFill=1;edgeStyle=orthogonalEdgeStyle;align=left;verticalAlign=bottom;rounded=0;exitX=0.444;exitY=1.017;exitDx=0;exitDy=0;exitPerimeter=0;entryX=0.5;entryY=0;entryDx=0;entryDy=0;" edge="1" parent="WIyWlLk6GJQsqaUBKTNV-1" source="350" target="321">
                    <mxGeometry x="-1" y="3" relative="1" as="geometry">
                        <mxPoint x="1290" y="790" as="sourcePoint"/>
                        <mxPoint x="1090" y="810" as="targetPoint"/>
                        <Array as="points">
                            <mxPoint x="1229" y="840"/>
                            <mxPoint x="1245" y="840"/>
                        </Array>
                    </mxGeometry>
                </mxCell>
                <mxCell id="352" value="1" style="text;html=1;strokeColor=none;fillColor=none;align=center;verticalAlign=middle;whiteSpace=wrap;rounded=0;" vertex="1" parent="WIyWlLk6GJQsqaUBKTNV-1">
                    <mxGeometry x="510" y="670" width="60" height="30" as="geometry"/>
                </mxCell>
                <mxCell id="353" value="1" style="text;html=1;strokeColor=none;fillColor=none;align=center;verticalAlign=middle;whiteSpace=wrap;rounded=0;" vertex="1" parent="WIyWlLk6GJQsqaUBKTNV-1">
                    <mxGeometry x="880" y="788" width="60" height="30" as="geometry"/>
                </mxCell>
                <mxCell id="354" value="&lt;p style=&quot;margin:0px;margin-top:4px;text-align:center;&quot;&gt;&lt;b&gt;listapaciente&lt;/b&gt;&lt;/p&gt;&lt;hr size=&quot;1&quot;&gt;&lt;p style=&quot;margin:0px;margin-left:4px;&quot;&gt;- cabeca:Medico&lt;br&gt;- cauda:Medico&lt;/p&gt;&lt;p style=&quot;margin:0px;margin-left:4px;&quot;&gt;-resultado:char&lt;/p&gt;&lt;p style=&quot;margin:0px;margin-left:4px;&quot;&gt;-numerodepacientes:int&lt;/p&gt;&lt;hr size=&quot;1&quot;&gt;&lt;p style=&quot;margin:0px;margin-left:4px;&quot;&gt;+ inserirnalista(int cpf,string nome,char sexo, string endereco,string telefone,string identidade):void&lt;br&gt;+ vazia():bool&lt;/p&gt;&lt;p style=&quot;margin:0px;margin-left:4px;&quot;&gt;+remover():void&lt;/p&gt;&lt;p style=&quot;margin:0px;margin-left:4px;&quot;&gt;+mostrarpaciente(int cpf):void&lt;/p&gt;&lt;p style=&quot;margin:0px;margin-left:4px;&quot;&gt;+pesquisarcpf(int cpf):void&lt;/p&gt;&lt;p style=&quot;margin:0px;margin-left:4px;&quot;&gt;+getresultado():char&lt;/p&gt;&lt;p style=&quot;margin:0px;margin-left:4px;&quot;&gt;+cadastrarultimaconsulta(int cpf, int dia, int mes, int ano):void&lt;/p&gt;&lt;p style=&quot;margin:0px;margin-left:4px;&quot;&gt;+getnumerodepacientes():int&lt;/p&gt;&lt;p style=&quot;margin:0px;margin-left:4px;&quot;&gt;+mostrarnome(int cpf):void&lt;/p&gt;" style="verticalAlign=top;align=left;overflow=fill;fontSize=12;fontFamily=Helvetica;html=1;" vertex="1" parent="WIyWlLk6GJQsqaUBKTNV-1">
                    <mxGeometry x="380" y="320" width="530" height="230" as="geometry"/>
                </mxCell>
                <mxCell id="355" value="1" style="text;html=1;strokeColor=none;fillColor=none;align=center;verticalAlign=middle;whiteSpace=wrap;rounded=0;" vertex="1" parent="WIyWlLk6GJQsqaUBKTNV-1">
                    <mxGeometry x="590" y="550" width="60" height="30" as="geometry"/>
                </mxCell>
                <mxCell id="356" value="" style="endArrow=open;html=1;endSize=12;startArrow=diamondThin;startSize=14;startFill=1;edgeStyle=orthogonalEdgeStyle;align=left;verticalAlign=bottom;rounded=0;exitX=0.493;exitY=1.033;exitDx=0;exitDy=0;exitPerimeter=0;entryX=0.5;entryY=0;entryDx=0;entryDy=0;" edge="1" parent="WIyWlLk6GJQsqaUBKTNV-1" source="302" target="354">
                    <mxGeometry x="-1" y="3" relative="1" as="geometry">
                        <mxPoint x="740" y="150" as="sourcePoint"/>
                        <mxPoint x="510" y="220" as="targetPoint"/>
                        <Array as="points">
                            <mxPoint x="688" y="160"/>
                            <mxPoint x="648" y="160"/>
                            <mxPoint x="648" y="220"/>
                            <mxPoint x="645" y="220"/>
                        </Array>
                    </mxGeometry>
                </mxCell>
                <mxCell id="357" value="1" style="text;html=1;strokeColor=none;fillColor=none;align=center;verticalAlign=middle;whiteSpace=wrap;rounded=0;" vertex="1" parent="WIyWlLk6GJQsqaUBKTNV-1">
                    <mxGeometry x="655" y="300" width="50" height="20" as="geometry"/>
                </mxCell>
            </root>
        </mxGraphModel>
    </diagram>
</mxfile>